<svg xmlns="http://www.w3.org/2000/svg" xmlns:xlink="http://www.w3.org/1999/xlink" width="61" height="61" viewBox="0 0 61 61"><defs><path id="2o10a" d="M1311.001 3047.428v51.38c0 .659-.533 1.193-1.191 1.193h-51.38a1.192 1.192 0 0 1-1.192-1.192v-7.471c0-.657.533-1.191 1.191-1.191h2.623a4.188 4.188 0 0 0 4.183-4.183 4.188 4.188 0 0 0-4.183-4.183h-2.623a1.192 1.192 0 0 1-1.191-1.192v-14.113h-1.036a6.21 6.21 0 0 1-6.203-6.203 6.21 6.21 0 0 1 6.203-6.202h1.036v-6.643c0-.658.533-1.19 1.191-1.19h6.642v-1.037a6.21 6.21 0 0 1 6.203-6.203 6.21 6.21 0 0 1 6.204 6.203v1.037h13.309a6.211 6.211 0 0 1 6.178-5.642 6.211 6.211 0 0 1 6.178 5.642h6.667a1.19 1.19 0 0 1 1.191 1.19zm-51.38 17.857v6.642h9.765v-6.426a1.192 1.192 0 0 1 2.383 0v6.426h11.16v-6.642c0-.658.533-1.191 1.19-1.191h2.228a3.825 3.825 0 0 0 3.82-3.82 3.824 3.824 0 0 0-3.82-3.82h-2.227a1.192 1.192 0 0 1-1.192-1.192v-6.642h-6.642a1.192 1.192 0 0 1-1.191-1.192v-2.227a3.824 3.824 0 0 0-3.82-3.82 3.824 3.824 0 0 0-3.82 3.82v2.227c0 .659-.534 1.192-1.192 1.192h-6.642v6.642c0 .658-.534 1.191-1.192 1.191h-2.227a3.824 3.824 0 0 0-3.82 3.82 3.825 3.825 0 0 0 3.82 3.82h2.227c.658 0 1.192.534 1.192 1.192zm25.203 24.497a3.823 3.823 0 0 0 3.818-3.819 3.822 3.822 0 0 0-3.818-3.818h-.704a1.191 1.191 0 0 1-1.192-1.19v-6.645h-23.307v5.088h1.431a6.574 6.574 0 0 1 6.566 6.566 6.574 6.574 0 0 1-6.566 6.566h-1.431v5.088h13.32v-6.427a1.192 1.192 0 0 1 2.382 0v6.427h7.605v-6.645c0-.658.534-1.19 1.192-1.19zm23.794-15.472h-5.45v2.634a6.21 6.21 0 0 1-6.203 6.203 6.21 6.21 0 0 1-6.203-6.203v-2.634h-5.451v5.472a6.208 6.208 0 0 1 5.714 6.182 6.209 6.209 0 0 1-5.714 6.181v5.473h23.307v-6.81h-6.425a1.191 1.191 0 1 1 0-2.382h6.425zm0-25.69h-6.642a1.192 1.192 0 0 1-1.191-1.192v-.63a3.824 3.824 0 0 0-3.82-3.82 3.824 3.824 0 0 0-3.82 3.82v.63c0 .659-.534 1.192-1.192 1.192h-6.642v5.451h1.036a6.21 6.21 0 0 1 6.203 6.202 6.21 6.21 0 0 1-6.203 6.203h-1.036v5.45h6.642c.658 0 1.191.534 1.191 1.193v3.825a3.825 3.825 0 0 0 3.82 3.82 3.825 3.825 0 0 0 3.82-3.82v-3.825c0-.659.534-1.192 1.192-1.192h6.642v-11.468h-6.425a1.192 1.192 0 0 1 0-2.383h6.425zm-34.486 36.9a1.191 1.191 0 1 1 0 2.383 1.191 1.191 0 0 1 0-2.382zm23.58 2.905a1.192 1.192 0 1 1 0 2.383 1.192 1.192 0 0 1 0-2.383zm0-30.35a1.192 1.192 0 1 1 0 2.384 1.192 1.192 0 0 1 0-2.383zm-27.134 1.755a1.192 1.192 0 1 1-.001 2.384 1.192 1.192 0 0 1 0-2.384z"/></defs><g><g transform="translate(-1250 -3039)"><use fill="#252525" xlink:href="#2o10a"/></g></g></svg>