<?xml version="1.0" encoding="utf-8"?>
<!-- Generator: Adobe Illustrator 23.0.3, SVG Export Plug-In . SVG Version: 6.00 Build 0)  -->
<svg version="1.1" id="Слой_1" xmlns="http://www.w3.org/2000/svg" xmlns:xlink="http://www.w3.org/1999/xlink" x="0px" y="0px"
	 viewBox="0 0 120 18.4" style="enable-background:new 0 0 120 18.4;" xml:space="preserve">
<style type="text/css">
	.st0{fill:#252525;}
</style>
<g transform="matrix(2.0134 0 0 2.0134 -2.01 -1.85)">
	<path id="S" class="st0" d="M5,7.3C5,7.5,5,7.8,5,8C4.9,8.2,4.7,8.5,4.1,8.5c-0.5,0-0.9-0.3-0.9-0.8V6.9H1v0.7
		c0,1.9,1.5,2.5,3.1,2.5c1.5,0,2.8-0.5,3-1.9c0.1-0.7,0-1.2,0-1.4C6.7,4.9,3.5,4.4,3.3,3.4c0-0.1,0-0.3,0-0.4c0-0.3,0.2-0.6,0.7-0.6
		s0.8,0.3,0.8,0.8v0.5h2.1V3.1C6.9,1.2,5.2,1,4,1C2.5,1,1.2,1.5,1,2.9C1,3.2,1,3.5,1.1,4C1.5,5.7,4.5,6.2,5,7.3"/>
	<path class="st0" d="M10.1,1.2L8.5,9.7h2.3L12,2l0,0l1.1,7.7h2.3l-1.6-8.5L10.1,1.2z M23,1.2l-1.1,6.5l0,0l-1-6.5h-3.5l-0.2,8.5
		h2.1L19.4,2l0,0l1.4,7.7H23L24.4,2l0,0l0.1,7.7h2.1l-0.2-8.5L23,1.2z"/>
	<g transform="translate(138.47 -.08)">
		<path class="st0" d="M-106,7.3c0.1,0.2,0.1,0.5,0,0.6c-0.1,0.3-0.3,0.6-0.8,0.6s-0.9-0.3-0.9-0.8V6.9h-2.3v0.7
			c0,1.9,1.5,2.5,3.1,2.5c1.5,0,2.8-0.5,3-1.9c0.1-0.7,0-1.2,0-1.4c-0.4-1.8-3.6-2.3-3.8-3.3c0-0.1,0-0.3,0-0.4
			c0.1-0.3,0.2-0.6,0.8-0.6c0.5,0,0.8,0.3,0.8,0.8v0.5h2.1V3.1c0-1.9-1.7-2.1-2.9-2.1c-1.5,0-2.8,0.5-3,1.9c-0.1,0.4-0.1,0.7,0,1.1
			C-109.4,5.7-106.4,6.2-106,7.3"/>
	</g>
	<path class="st0" d="M39.8,8.4c0.6,0,0.8-0.4,0.8-0.6c0-0.1,0-0.2,0-0.3V1.2h2.2v6.1c0,0.2,0,0.4,0,0.6c-0.2,1.6-1.4,2.1-3,2.1
		s-2.8-0.5-3-2.1c0-0.1,0-0.4,0-0.6V1.2H39v6.3c0,0.1,0,0.2,0,0.3C39,8,39.2,8.4,39.8,8.4 M50.2,1.2l0.1,6.7l0,0l-2-6.7h-3.2v8.4
		h2.1l-0.1-6.9l0,0l2.1,6.9h3V1.2H50.2z M57.6,8.4c0.6,0,0.8-0.4,0.9-0.6c0-0.1,0-0.2,0-0.3V6.2h-0.9V4.9h3v2.3c0,0.2,0,0.3,0,0.6
		c-0.1,1.6-1.5,2.1-3,2.1s-2.9-0.6-3-2.1c0-0.3,0-0.4,0-0.6V3.6c0-0.2,0-0.4,0-0.6c0.2-1.6,1.5-2.1,3-2.1s2.8,0.5,3,2.1
		c0,0.3,0,0.6,0,0.6v0.3h-2.1V3.4c0,0,0-0.2,0-0.3c0-0.2-0.2-0.6-0.9-0.6c-0.6,0-0.8,0.4-0.8,0.6c0,0.1,0,0.3,0,0.4v3.9
		c0,0.1,0,0.2,0,0.3C56.7,8,56.9,8.4,57.6,8.4"/>
</g>
</svg>
